<?xml version="1.0" standalone="no"?>
<!DOCTYPE svg PUBLIC "-//W3C//DTD SVG 20010904//EN" "http://www.w3.org/TR/2001/REC-SVG-20010904/DTD/svg10.dtd">
<svg version="1.0" xmlns="http://www.w3.org/2000/svg"
	width="512.000000pt" height="512.000000pt" viewBox="0 0 512.000000 512.000000"
	preserveAspectRatio="xMidYMid meet">

	<rect width="100%" height="100%" fill="#FFFFFF" />

	<g transform="translate(0.000000,512.000000) scale(0.100000,-0.100000)"
		stroke="none">
		<path
			d="M501 4233 c0 -5 363 -245 807 -535 l807 -528 3 523 c1 287 0 528 -3
535 -3 9 -175 12 -810 12 -443 0 -805 -3 -804 -7z"
			fill="#001b69" />
		<path
			d=" M3005 4228 c-3 -7 -4 -248 -3 -536 l3 -522 807 527 c444 291 807 531
	807 536 1 4 -361 7 -804 7 -635 0 -807 -3 -810 -12z"
			fill="#001b69" />
		<path
			d=" M2300 3525 l0 -705 -1150 0 -1150 0 0 -260 0 -260 1150 0 1150 0 0
	-705 0 -705 260 0 260 0 0 705 0 705 1150 0 1150 0 0 260 0 260 -1150 0 -1150
	0 0 705 0 705 -260 0 -260 0 0 -705z"
			fill=" #CF142B" />
		<path
			d=" M3947 3612 l-917 -597 151 -3 151 -3 843 548 844 548 -22 23 c-20 22
	-115 83 -127 81 -3 0 -418 -269 -923 -597z"
			fill=" #CF142B" />
		<path
			d=" M112 4117 c-47 -52 -67 -86 -55 -97 4 -4 356 -233 782 -509 l774
	-502 151 3 151 3 -870 564 c-479 310 -875 568 -881 573 -7 5 -26 -8 -52 -35z"
			fill=" #CF142B" />
		<path
			d=" M6 3903 c-3 -3 -6 -208 -6 -455 l0 -448 697 0 c425 0 693 4 688 9 -8
	7 -1316 866 -1361 894 -6 3 -14 4 -18 0z"
			fill="#001b69" />
		<path
			d=" M4425 3463 c-374 -245 -684 -449 -689 -454 -6 -5 270 -9 687 -9 l697
	0 0 449 c0 248 -3 452 -8 455 -4 2 -313 -196 -687 -441z"
			fill="#001b69" />
		<path
			d=" M0 1671 c0 -248 4 -452 8 -455 7 -4 1350 869 1377 895 5 5 -262 9
	-688 9 l-697 0 0 -449z"
			fill="#001b69" />
		<path
			d=" M3736 2111 c27 -26 1370 -899 1376 -895 5 3 8 207 8 455 l0 449 -697
	0 c-417 0 -693 -4 -687 -9z"
			fill="#001b69" />
		<path
			d=" M942 1563 l-843 -546 26 -27 c15 -15 48 -39 74 -53 l47 -26 890 577
	c489 317 905 587 924 599 l35 23 -156 0 -155 0 -842 -547z"
			fill=" #CF142B" />
		<path
			d=" M3176 2101 c5 -4 394 -258 864 -563 470 -305 868 -562 883 -573 l28
	-18 55 56 c29 31 54 61 54 66 0 5 -358 241 -795 525 l-794 516 -153 0 c-85 0
	-148 -4 -142 -9z"
			fill=" #CF142B" />
		<path
			d=" M1308 1422 c-444 -290 -807 -530 -807 -534 -1 -5 361 -8 804 -8 635
	0 807 3 810 13 3 6 4 247 3 534 l-3 523 -807 -528z"
			fill="#001b69" />
		<path
			d=" M3002 1418 l3 -533 808 -3 c444 -1 807 1 806 5 0 6 -1545 1023 -1605
	1056 -12 7 -14 -65 -12 -525z"
			fill="#001b69" />
	</g>
</svg>