<svg width="138" height="53" viewBox="0 0 138 53" fill="none" xmlns="http://www.w3.org/2000/svg">
<path d="M86.6807 26.2303C87.8263 24.4972 89.6768 23.3811 91.5861 22.588C93.4953 21.7949 95.5515 21.3837 97.4901 20.7081C100.369 19.7388 103.1 18.2407 105.157 16.0084C107.213 13.776 108.534 10.7799 108.329 7.75446C103.335 10.6918 97.4607 11.8373 92.3498 14.5691C89.0012 16.3608 86.0051 18.8282 83.949 22.0005C81.8929 25.1728 80.8648 29.0795 81.4816 32.8099C83.6259 31.3412 86.2989 30.9006 88.8837 30.7538C91.4686 30.6069 94.1122 30.7244 96.6383 30.1663C99.1644 29.6082 101.69 28.2276 102.865 25.9072C99.2231 25.5253 95.5808 25.4372 91.9092 25.6134C96.6676 24.321 101.602 23.7629 106.508 23.9391C105.215 27.4639 102.249 30.3425 98.6357 31.4881C95.7571 32.3987 92.6435 32.2224 89.618 32.193C86.5926 32.193 83.4203 32.3987 80.8354 33.9848C80.8942 33.9554 80.6592 32.8099 80.6592 32.663C80.6004 32.193 80.5711 31.7524 80.5711 31.2825C80.5417 30.3719 80.5711 29.432 80.6592 28.5214C80.8354 26.6709 81.2467 24.8791 81.8929 23.1461C82.5097 21.4718 83.3028 19.7388 84.4777 18.417C85.682 17.0658 87.0919 15.8615 88.59 14.8334C91.2042 13.0123 94.0534 11.6317 96.932 10.3099C101.602 8.19506 106.449 6.19768 110.326 2.84912C111.149 5.93332 111.031 9.2525 109.944 12.2486C108.858 15.2447 106.772 17.8589 104.099 19.5919C98.8706 22.9992 91.8504 22.7055 86.6807 26.2303Z" fill="#2F7535"/>
<path d="M90.3522 39.1548C90.7634 39.0373 91.1746 38.9492 91.6152 38.9492C92.7608 38.9198 93.9064 39.2723 94.905 39.8304C94.9638 39.7129 94.9344 39.5954 94.9344 39.4486C94.905 39.2723 94.8757 39.3311 94.9932 39.2429C95.1988 39.1255 95.5219 39.0667 95.7569 39.0373C95.9037 39.008 97.343 38.9198 97.343 39.0667C97.4018 41.4459 97.4312 43.7958 97.4899 46.175C97.5193 47.3206 97.5486 48.4662 97.2549 49.5823C96.9906 50.6985 96.3737 51.756 95.375 52.3434C94.6701 52.7547 93.8476 52.9015 93.0252 52.9603C91.8502 53.0484 90.6459 53.019 89.5591 52.5784C88.4723 52.1378 87.5324 51.2566 87.2386 50.1111C88.2079 49.8467 89.2654 49.9642 90.2053 50.2579C90.734 50.4048 91.2628 50.6104 91.7915 50.7279C92.3202 50.8454 92.9077 50.8454 93.407 50.6104C94.2588 50.2286 94.6994 49.2299 94.6113 48.2899C93.2308 49.1711 91.3803 49.2886 89.9116 48.5837C88.4135 47.8787 87.3267 46.41 87.0624 44.7945C86.6805 42.5621 87.8848 39.9773 90.1172 39.1842C90.2347 39.1842 90.2934 39.1548 90.3522 39.1548ZM94.9932 43.2377C94.9638 43.1496 94.9344 43.0615 94.905 42.9734C94.7288 42.4446 94.4351 41.9747 93.9945 41.6516C93.5833 41.3578 93.0839 41.1816 92.5552 41.1816C90.5284 41.1228 88.9423 43.3258 89.7941 45.2057C90.2641 46.2338 91.4096 46.9387 92.5552 46.8506C93.7007 46.7625 94.7288 45.8813 94.9932 44.7945C95.14 44.2658 95.1107 43.7371 94.9932 43.2377Z" fill="#2F7535"/>
<path d="M65.9723 46.2922C65.6199 47.2322 65.238 48.1427 64.8855 49.0827C63.9456 49.0827 63.0938 49.0827 62.1538 49.0827C63.9162 44.5298 65.6492 40.0357 67.4116 35.5122C68.2928 35.5122 69.1153 35.5122 70.0259 35.5122C71.7295 39.9476 73.4919 44.4711 75.2543 49.112C74.8137 49.112 74.3731 49.1414 73.9325 49.1414C73.4625 49.1414 72.9632 49.1414 72.552 49.1414C72.1995 48.1721 71.847 47.2615 71.4945 46.2922C69.6734 46.2922 67.911 46.2922 65.9723 46.2922ZM68.7041 39.0076C68.2635 40.8581 67.2354 42.1799 67.1179 43.8542C68.2635 43.8542 69.3209 43.8542 70.4665 43.8542C69.9084 42.2681 69.3503 40.7994 68.7041 39.0076Z" fill="#2F7535"/>
<path d="M45.7343 27.1117C45.6756 27.3173 45.6462 27.5229 45.5581 27.7285C45.235 28.6685 44.7063 29.579 43.9132 30.1959C42.797 31.1065 41.299 31.4002 39.889 31.4296C38.4791 31.4589 37.0105 31.3121 35.6005 31.4002C35.6887 31.4002 35.718 27.4348 35.718 27.0823C35.7474 25.6136 35.7474 24.1744 35.718 22.7057C35.6887 21.4133 35.6593 20.1502 35.6005 18.8578C35.6005 18.6522 35.5418 18.4172 35.7474 18.3291C35.9824 18.2409 36.3642 18.2997 36.6286 18.2703C37.2748 18.2409 37.9504 18.2409 38.5966 18.2703C40.2415 18.2997 41.9452 18.4466 43.2963 19.3571C44.1482 19.9446 44.8238 20.7964 45.235 21.7657C45.6462 22.7351 45.8518 23.7631 45.9106 24.7912C45.9399 25.5549 45.9106 26.348 45.7343 27.1117ZM41.7396 28.8447C42.0039 28.6978 42.2389 28.5216 42.4445 28.316C43.1789 27.5817 43.4432 26.5242 43.5313 25.4962C43.5901 24.7031 43.5607 23.8806 43.3257 23.1169C43.0907 22.3532 42.5914 21.6483 41.9158 21.237C41.2108 20.7964 40.359 20.7083 39.5659 20.5027C39.3603 20.4439 39.1253 20.3852 38.9197 20.3558C37.921 20.2971 37.8035 21.5014 37.8035 22.2357C37.7742 24.3506 37.7742 26.4948 37.7448 28.6097C37.7448 28.786 37.7448 28.9916 37.8917 29.1384C38.0092 29.2559 38.2148 29.2853 38.391 29.3147C39.1253 29.3734 39.8303 29.4028 40.5646 29.2853C40.9465 29.1972 41.3577 29.0503 41.7396 28.8447Z" fill="#F7984E"/>
<path d="M5.16979 18.3289C6.02162 18.3289 6.8147 18.3289 7.63715 18.3289C9.28205 22.6467 10.9563 26.9646 12.6306 31.3412C11.9257 31.3412 11.1619 31.3412 10.2807 31.3412C9.92827 30.4307 9.54641 29.4907 9.16456 28.5214C7.31404 28.5214 5.52227 28.5214 3.58363 28.5214C3.23115 29.432 2.8493 30.3719 2.46745 31.3412C1.67437 31.3412 0.910664 31.3412 0.0588379 31.3412C1.79186 26.994 3.46614 22.7055 5.16979 18.3289ZM6.10974 21.7068C5.816 23.4104 4.81731 24.7616 4.52358 26.3771C5.87475 26.3771 7.10843 26.3771 8.34211 26.3771C7.19655 23.058 6.8147 22.2355 6.10974 21.7068Z" fill="#F7984E"/>
<path d="M24.4092 35.1304C23.7043 35.1304 23.0287 35.1304 22.3237 35.1304C22.2943 33.5443 22.265 31.9875 22.2356 30.4013C21.4425 31.1651 20.3851 31.635 19.2983 31.6644C18.2115 31.6938 17.0953 31.3707 16.2434 30.6657C14.951 29.6376 14.3048 27.934 14.4517 26.2891C14.5398 25.1142 15.0391 24.0273 15.7441 23.1168C16.0966 22.6762 16.4491 22.2943 16.9484 22.0593C17.5065 21.7656 18.0646 21.5894 18.6814 21.5894C18.9752 21.5894 19.2395 21.5894 19.5332 21.6481C20.4732 21.795 21.3544 22.2356 22.1768 22.7055C22.265 22.4118 22.3531 22.1474 22.4412 21.8537C23.1168 21.8537 23.763 21.8537 24.4386 21.8537C24.2917 26.2891 24.2917 30.7245 24.4092 35.1304ZM18.7989 23.7042C18.3877 23.7924 17.9765 23.9686 17.6534 24.2917C17.0365 24.8792 16.7134 25.7897 16.6547 26.6416C16.6253 27.1997 16.684 27.7871 16.9484 28.2571C17.2128 28.7271 17.6534 29.0502 18.094 29.3145C18.5346 29.5789 19.0045 29.7845 19.5039 29.7845C19.9738 29.7845 20.4438 29.5789 20.855 29.3145C21.325 29.0208 21.7656 28.6389 22.0006 28.169C22.3531 27.464 22.3237 26.6416 22.1768 25.8779C22.0887 25.4079 21.9712 24.9379 21.6775 24.5561C21.2956 24.0861 20.6788 23.8511 20.0913 23.7336C19.7095 23.6455 19.2395 23.6161 18.7989 23.7042Z" fill="#F7984E"/>
<path d="M136.909 42.3563C137.379 43.7075 137.32 45.2643 136.645 46.5567C135.763 48.2897 133.854 49.4353 131.915 49.4059C129.977 49.3765 128.097 48.2016 127.245 46.4686C126.481 44.9412 126.57 43.0613 127.363 41.5926C128.156 40.1533 129.918 39.1546 131.504 38.9784C131.915 38.9196 132.327 38.9196 132.738 38.9784C134.118 39.1546 135.411 39.9477 136.233 41.0639C136.498 41.4457 136.733 41.8863 136.909 42.3563ZM130.887 41.3282C129.859 41.8276 129.154 43.0613 129.154 44.2068C129.154 44.9412 129.448 45.7049 129.947 46.263C130.271 46.6448 130.682 46.9385 131.181 47.056C131.651 47.1735 132.18 47.1148 132.65 46.9679C133.296 46.7329 133.883 46.3217 134.265 45.7342C134.647 45.1762 134.823 44.4418 134.706 43.7662C134.618 43.1494 134.295 42.5913 133.883 42.1507C133.502 41.7101 133.032 41.3576 132.474 41.1814C131.886 41.0639 131.357 41.1226 130.887 41.3282Z" fill="#2F7535"/>
<path d="M55.6623 22.735C55.7211 22.4413 55.7798 22.1476 55.8386 21.8832C56.5142 21.8832 57.1897 21.8832 57.8653 21.8538C57.9241 21.8538 58.0122 21.8538 58.0416 21.8832C58.1003 21.942 58.1003 22.0301 58.1003 22.1182C58.1003 25.2024 58.1003 28.2866 58.1003 31.3414C57.366 31.3414 56.6023 31.3414 55.8679 31.3414C55.8092 31.0771 55.7211 30.8421 55.6623 30.5777C54.8693 31.1064 53.9881 31.5764 53.0481 31.6939C52.1963 31.782 51.3445 31.5764 50.6101 31.1652C49.1121 30.3721 48.1134 28.7566 47.9372 27.0823C47.8197 25.9367 48.1134 24.7618 48.7009 23.7631C48.9652 23.2931 49.3177 22.7938 49.7289 22.4413C50.1989 22.0594 50.9039 21.8538 51.4619 21.7363C51.8732 21.6482 52.2844 21.6188 52.6956 21.6482C53.7824 21.6776 54.8399 22.0888 55.6623 22.735ZM54.1349 29.5496C54.6049 29.3147 54.9867 28.9034 55.3099 28.4628C55.6623 27.9929 55.9854 27.4935 56.0736 26.906C56.1617 26.3773 56.0148 25.8486 55.8092 25.3786C55.5448 24.8205 55.1336 24.3212 54.6343 23.9981C54.1349 23.7044 53.5475 23.5575 52.9894 23.5869C51.1682 23.7337 50.1402 25.6136 50.3751 27.3173C50.4339 27.846 50.6395 28.3453 50.992 28.7272C51.3445 29.109 51.8438 29.344 52.3431 29.4909C52.8131 29.6378 53.3125 29.7553 53.8118 29.6378C53.8999 29.6671 54.0174 29.6084 54.1349 29.5496Z" fill="#F7984E"/>
<path d="M72.875 22.7935C72.9337 22.4703 72.9631 22.1766 73.0218 21.8535C73.6681 21.8535 74.3143 21.8535 74.9605 21.8535C74.9605 24.9965 74.9605 28.1688 74.9605 31.3117C74.3143 31.3117 73.6974 31.3117 73.0512 31.3117C72.9631 31.018 72.9043 30.7242 72.8162 30.4305C72.1406 30.9299 71.3769 31.3705 70.5545 31.5761C69.1739 31.8992 67.6465 31.4292 66.6185 30.4599C65.5904 29.4906 65.0029 28.0513 65.0323 26.6414C65.0323 25.4077 65.4729 24.2034 66.1779 23.1753C66.8534 22.2354 67.9696 21.7066 69.0858 21.6185C69.2914 21.6185 69.4677 21.5892 69.6733 21.6185C70.8188 21.6773 71.9057 22.1766 72.875 22.7935ZM69.0858 29.5199C69.4677 29.6668 69.9083 29.7549 70.3195 29.7256C71.2301 29.6668 72.1113 29.1087 72.5812 28.3156C73.0512 27.5226 73.1393 26.5239 72.8456 25.6427C72.5225 24.7321 71.7882 23.939 70.8776 23.6747C68.9683 23.0872 67.294 24.7027 67.2353 26.5532C67.2059 27.3757 67.4997 28.2275 68.0871 28.815C68.3515 29.1381 68.704 29.3731 69.0858 29.5199Z" fill="#F7984E"/>
<path d="M81.7753 18.3877C81.5403 17.1834 81.7753 15.9497 82.2453 14.8335C83.244 12.4543 85.1238 10.5156 87.0919 8.87074C88.2374 7.90142 89.4711 7.02022 90.646 6.10965C92.9371 4.37662 95.1989 2.46736 96.6382 0C97.3138 1.7624 97.725 3.70104 97.4019 5.58093C97.0788 7.46082 95.9039 9.25259 94.1415 9.95755C95.0227 8.40077 95.9038 6.72649 95.6689 4.96409C95.6395 4.84659 95.6101 4.7291 95.4926 4.69973C95.4339 4.69973 95.3458 4.7291 95.287 4.75848C92.0853 6.90273 88.8836 9.07635 86.0638 11.6906C84.0958 13.5411 82.2746 15.7147 81.7753 18.3877Z" fill="#F7984E"/>
<path d="M55.7799 44.7649C55.5449 44.8824 55.3099 45.0293 55.0456 45.088C54.7225 45.1468 54.37 45.088 54.0175 45.088C36.1292 45.088 18.2408 45.088 0.411226 45.088C0.26436 44.8824 0.117493 44.7062 0 44.5593C18.5052 44.5593 37.0985 44.5593 55.6918 44.5593C55.7212 44.6181 55.7505 44.6768 55.7799 44.7649Z" fill="#2F7535"/>
<path d="M110.179 39.2131C110.238 39.1544 110.326 39.125 110.444 39.0663C110.884 38.9488 111.325 38.9194 111.766 39.0075C111.824 39.0075 111.883 39.0369 111.942 39.0957C111.971 39.125 111.971 39.1838 111.971 39.2425C112.001 39.5363 112.001 39.83 112.03 40.1237C112.353 40.0356 112.471 39.6244 112.735 39.36C113.029 39.0663 113.469 39.0075 113.88 39.0075C114.321 39.0075 114.732 39.0075 115.173 39.0663C115.085 39.83 114.85 40.5643 114.468 41.2399C114.145 40.9755 113.645 41.0343 113.322 41.2987C112.999 41.563 112.823 41.9449 112.706 42.3561C112.382 43.4723 112.529 44.6766 112.559 45.8515C112.588 46.8796 112.559 47.9076 112.5 48.9357C112.5 48.9945 112.5 49.0532 112.441 49.112C112.412 49.1707 112.324 49.1707 112.265 49.1707C111.501 49.2294 110.708 49.2294 109.944 49.1707C109.944 46.1159 109.915 43.061 109.915 40.0062C109.974 39.595 109.974 39.36 110.179 39.2131Z" fill="#2F7535"/>
<path d="M62.7119 31.4002C62.3888 31.4002 62.0951 31.4002 61.8013 31.4002C61.4782 31.4002 61.1257 31.4002 60.7439 31.4002C60.7439 26.9648 60.7439 22.5588 60.7439 18.0647C61.3314 17.9178 61.9776 18.0647 62.6825 17.9766C62.7119 22.4707 62.7119 26.8473 62.7119 31.4002Z" fill="#F7984E"/>
<path d="M32.1343 27.6109C30.6069 27.6109 29.1089 27.6109 27.5227 27.6109C27.6696 26.9353 27.229 26.201 27.9633 25.6135C29.3438 25.6135 30.7244 25.6135 32.1637 25.6135C32.1343 26.2304 32.1343 26.8472 32.1343 27.6109Z" fill="#F7984E"/>
<path d="M136.968 25.5255C128.45 25.5255 119.961 25.5255 111.442 25.5255C111.442 25.4374 111.442 25.408 111.472 25.3786C111.501 25.3493 111.531 25.2905 111.589 25.2905C120.049 25.2905 128.538 25.2905 136.997 25.2905C136.968 25.3786 136.968 25.4668 136.968 25.5255Z" fill="#F7984E"/>
<path d="M4.40601 26.4066H8.43015L6.37402 21.002L4.40601 26.4066Z" fill="white"/>
</svg>
