<svg width="32" height="32" viewBox="0 0 32 32" fill="none" xmlns="http://www.w3.org/2000/svg">
<rect width="32" height="32" rx="16" fill="#FF9900"/>
<path fill-rule="evenodd" clip-rule="evenodd" d="M18.1716 12.4644L21.3536 15.6464C21.5488 15.8417 21.5488 16.1583 21.3536 16.3535L18.1716 19.5355C17.9763 19.7308 17.6597 19.7308 17.4645 19.5355C17.2692 19.3402 17.2692 19.0237 17.4645 18.8284L19.7929 16.5L11 16.5C10.7239 16.5 10.5 16.2761 10.5 16C10.5 15.7238 10.7239 15.5 11 15.5L19.7929 15.5L17.4645 13.1715C17.2692 12.9763 17.2692 12.6597 17.4645 12.4644C17.6597 12.2692 17.9763 12.2692 18.1716 12.4644Z" fill="#1C1C1C"/>
</svg>
