<svg width="8" height="154" viewBox="0 0 8 154" fill="none" xmlns="http://www.w3.org/2000/svg">
<circle cx="4" cy="4" r="4" fill="#FF9900"/>
<path fill-rule="evenodd" clip-rule="evenodd" d="M4 69C3.72386 69 3.5 68.7761 3.5 68.5V12.5C3.5 12.2239 3.72386 12 4 12V12C4.27614 12 4.5 12.2239 4.5 12.5V68.5C4.5 68.7761 4.27614 69 4 69V69Z" fill="#FF9900"/>
<circle cx="4" cy="77" r="4" fill="#FF9900"/>
<path fill-rule="evenodd" clip-rule="evenodd" d="M4 142C3.72386 142 3.5 141.776 3.5 141.5V85.5C3.5 85.2239 3.72386 85 4 85V85C4.27614 85 4.5 85.2239 4.5 85.5V141.5C4.5 141.776 4.27614 142 4 142V142Z" fill="#F4F4F4"/>
<circle cx="4" cy="150" r="4" fill="#F4F4F4"/>
</svg>
