<svg width="32" height="32" viewBox="0 0 32 32" fill="none" xmlns="http://www.w3.org/2000/svg">
<rect width="32" height="32" rx="16" fill="#F4F4F4"/>
<path d="M12.4646 18.8283C12.2693 19.0236 12.2693 19.3402 12.4646 19.5354C12.6598 19.7307 12.9764 19.7307 13.1717 19.5354L12.4646 18.8283ZM19.6821 12.8179C19.6821 12.5418 19.4582 12.3179 19.1821 12.3179L14.6821 12.3179C14.4059 12.3179 14.1821 12.5418 14.1821 12.8179C14.1821 13.0941 14.4059 13.3179 14.6821 13.3179L18.6821 13.3179L18.6821 17.3179C18.6821 17.5941 18.9059 17.8179 19.1821 17.8179C19.4582 17.8179 19.6821 17.5941 19.6821 17.3179L19.6821 12.8179ZM13.1717 19.5354L19.5356 13.1715L18.8285 12.4644L12.4646 18.8283L13.1717 19.5354Z" fill="#1C1C1C"/>
</svg>
