<svg width="238" height="114" viewBox="0 0 238 114" fill="none" xmlns="http://www.w3.org/2000/svg">
<path d="M150.492 45.7125C152.477 42.6923 155.682 40.7471 158.989 39.365C162.296 37.9828 165.857 37.2662 169.215 36.0888C174.201 34.3995 178.932 31.7889 182.494 27.8984C186.055 24.008 188.345 18.7866 187.988 13.5141C179.339 18.633 169.164 20.6295 160.312 25.3901C154.512 28.5127 149.322 32.8127 145.761 38.3412C142.2 43.8697 140.419 50.6779 141.487 57.1791C145.201 54.6196 149.831 53.8517 154.308 53.5958C158.785 53.3398 163.364 53.5446 167.74 52.572C172.115 51.5994 176.49 49.1934 178.525 45.1494C172.217 44.484 165.908 44.3304 159.549 44.6375C167.79 42.3852 176.338 41.4126 184.834 41.7197C182.596 47.8625 177.457 52.8791 171.199 54.8755C166.213 56.4624 160.82 56.1553 155.58 56.1041C150.34 56.1041 144.845 56.4624 140.368 59.2267C140.47 59.1755 140.063 57.1791 140.063 56.9231C139.961 56.1041 139.91 55.3362 139.91 54.5172C139.859 52.9303 139.91 51.2922 140.063 49.7053C140.368 46.4804 141.08 43.3578 142.2 40.3376C143.268 37.4198 144.642 34.3995 146.677 32.096C148.763 29.7413 151.205 27.6425 153.799 25.8508C158.327 22.677 163.262 20.2711 168.248 17.9676C176.338 14.2819 184.732 10.801 191.448 4.96533C192.873 10.3403 192.669 16.1247 190.787 21.3461C188.904 26.5675 185.292 31.1234 180.662 34.1436C171.606 40.0816 159.447 39.5697 150.492 45.7125Z" fill="#2F7535"/>
<path d="M156.852 68.2363C157.564 68.0315 158.277 67.878 159.04 67.878C161.024 67.8268 163.008 68.4411 164.738 69.4137C164.84 69.2089 164.789 69.0041 164.789 68.7482C164.738 68.4411 164.687 68.5434 164.891 68.3899C165.247 68.1851 165.806 68.0827 166.213 68.0315C166.468 67.9803 168.961 67.8268 168.961 68.0827C169.062 72.2291 169.113 76.3243 169.215 80.4707C169.266 82.4671 169.317 84.4635 168.808 86.4087C168.35 88.3539 167.282 90.1968 165.552 91.2206C164.331 91.9372 162.906 92.1932 161.482 92.2956C159.447 92.4491 157.361 92.3979 155.478 91.6301C153.596 90.8622 151.968 89.3266 151.459 87.3301C153.138 86.8694 154.97 87.0742 156.598 87.5861C157.513 87.842 158.429 88.2004 159.345 88.4051C160.261 88.6099 161.278 88.6099 162.143 88.2004C163.619 87.5349 164.382 85.7944 164.229 84.1564C161.838 85.6921 158.633 85.8968 156.089 84.6683C153.494 83.4397 151.612 80.8802 151.154 78.0648C150.492 74.1743 152.578 69.6696 156.445 68.2875C156.649 68.2875 156.75 68.2363 156.852 68.2363ZM164.891 75.3517C164.84 75.1981 164.789 75.0446 164.738 74.891C164.433 73.9696 163.924 73.1505 163.161 72.5874C162.448 72.0755 161.584 71.7684 160.668 71.7684C157.157 71.666 154.41 75.5053 155.885 78.7814C156.699 80.5731 158.684 81.8016 160.668 81.6481C162.652 81.4945 164.433 79.9588 164.891 78.0648C165.145 77.1433 165.094 76.2219 164.891 75.3517Z" fill="#2F7535"/>
<path d="M114.625 80.6754C114.014 82.3135 113.353 83.9003 112.742 85.5384C111.114 85.5384 109.639 85.5384 108.011 85.5384C111.063 77.604 114.065 69.7719 117.118 61.8887C118.644 61.8887 120.068 61.8887 121.646 61.8887C124.596 69.6184 127.649 77.5016 130.702 85.5896C129.938 85.5896 129.175 85.6408 128.412 85.6408C127.598 85.6408 126.733 85.6408 126.021 85.6408C125.41 83.9515 124.8 82.3647 124.189 80.6754C121.035 80.6754 117.983 80.6754 114.625 80.6754ZM119.356 67.9803C118.593 71.2052 116.812 73.5088 116.609 76.4266C118.593 76.4266 120.425 76.4266 122.409 76.4266C121.442 73.6624 120.475 71.1029 119.356 67.9803Z" fill="#2F7535"/>
<path d="M79.5707 47.2483C79.469 47.6067 79.4181 47.965 79.2655 48.3233C78.7058 49.9614 77.79 51.5483 76.4164 52.6233C74.4831 54.2102 71.8884 54.7221 69.4463 54.7732C67.0042 54.8244 64.4604 54.5685 62.0183 54.7221C62.171 54.7221 62.2218 47.8114 62.2218 47.1971C62.2727 44.6376 62.2727 42.1293 62.2218 39.5698C62.171 37.3175 62.1201 35.1163 62.0183 32.8639C62.0183 32.5056 61.9166 32.0961 62.2727 31.9425C62.6797 31.789 63.3411 31.8913 63.799 31.8402C64.9183 31.789 66.0885 31.789 67.2077 31.8402C70.0568 31.8913 73.0077 32.1473 75.348 33.7342C76.8234 34.758 77.9935 36.2425 78.7058 37.9318C79.4181 39.621 79.7742 41.4127 79.876 43.2043C79.9268 44.5353 79.876 45.9174 79.5707 47.2483ZM72.6515 50.2685C73.1094 50.0126 73.5164 49.7054 73.8725 49.3471C75.1445 48.0674 75.6023 46.2245 75.755 44.4329C75.8567 43.0508 75.8059 41.6174 75.3988 40.2865C74.9918 38.9556 74.1269 37.727 72.9568 37.0103C71.7357 36.2425 70.2603 36.0889 68.8867 35.7306C68.5305 35.6282 68.1235 35.5258 67.7674 35.4746C66.0376 35.3723 65.8341 37.471 65.8341 38.7508C65.7832 42.4365 65.7832 46.1733 65.7323 49.859C65.7323 50.1662 65.7323 50.5245 65.9867 50.7804C66.1902 50.9852 66.5463 51.0364 66.8516 51.0876C68.1235 51.19 69.3445 51.2411 70.6165 51.0364C71.2779 50.8828 71.9901 50.6269 72.6515 50.2685Z" fill="#F7984E"/>
<path d="M9.31051 31.9426C10.7859 31.9426 12.1596 31.9426 13.5841 31.9426C16.4332 39.4675 19.3332 46.9925 22.2331 54.6198C21.0121 54.6198 19.6893 54.6198 18.163 54.6198C17.5525 53.0329 16.8911 51.3948 16.2297 49.7055C13.0245 49.7055 9.92103 49.7055 6.56318 49.7055C5.95266 51.2924 5.29127 52.9305 4.62988 54.6198C3.25621 54.6198 1.93342 54.6198 0.458008 54.6198C3.45972 47.0437 6.35967 39.5699 9.31051 31.9426ZM10.9386 37.8295C10.4298 40.7985 8.69999 43.1532 8.19123 45.9687C10.5315 45.9687 12.6684 45.9687 14.8052 45.9687C12.821 40.1842 12.1596 38.7509 10.9386 37.8295Z" fill="#F7984E"/>
<path d="M42.6345 61.2231C41.4134 61.2231 40.2433 61.2231 39.0222 61.2231C38.9714 58.4588 38.9205 55.7458 38.8696 52.9815C37.4959 54.3124 35.6644 55.1315 33.782 55.1827C31.8995 55.2339 29.9662 54.6708 28.4908 53.4422C26.2522 51.6506 25.133 48.6815 25.3873 45.8149C25.54 43.7673 26.4049 41.8733 27.6259 40.2864C28.2364 39.5185 28.8469 38.8531 29.7118 38.4435C30.6785 37.9317 31.6451 37.6245 32.7136 37.6245C33.2223 37.6245 33.6802 37.6245 34.189 37.7269C35.817 37.9828 37.3433 38.7507 38.7678 39.5697C38.9205 39.0578 39.0731 38.5971 39.2257 38.0852C40.3959 38.0852 41.5152 38.0852 42.6853 38.0852C42.431 45.8149 42.431 53.5446 42.6345 61.2231ZM32.9171 41.3102C32.2048 41.4638 31.4925 41.7709 30.9329 42.334C29.8645 43.3578 29.3048 44.9447 29.2031 46.4292C29.1522 47.4018 29.254 48.4256 29.7118 49.2446C30.1697 50.0637 30.9329 50.6268 31.696 51.0875C32.4592 51.5482 33.2732 51.9065 34.1381 51.9065C34.9521 51.9065 35.7661 51.5482 36.4784 51.0875C37.2924 50.5756 38.0556 49.9101 38.4626 49.0911C39.0731 47.8625 39.0222 46.4292 38.7678 45.0982C38.6152 44.2792 38.4117 43.4602 37.9029 42.7947C37.2416 41.9757 36.1731 41.5661 35.1556 41.3614C34.4942 41.2078 33.6802 41.1566 32.9171 41.3102Z" fill="#F7984E"/>
<path d="M237.491 73.8159C238.305 76.1707 238.204 78.8837 237.033 81.1361C235.507 84.1563 232.2 86.1527 228.842 86.1015C225.484 86.0503 222.228 84.0027 220.753 80.9825C219.43 78.3206 219.583 75.0445 220.956 72.485C222.33 69.9767 225.383 68.2362 228.13 67.9291C228.842 67.8267 229.555 67.8267 230.267 67.9291C232.658 68.2362 234.897 69.6184 236.321 71.5636C236.779 72.229 237.186 72.9969 237.491 73.8159ZM227.062 72.0243C225.281 72.8945 224.06 75.0445 224.06 77.0409C224.06 78.3206 224.569 79.6516 225.434 80.6242C225.993 81.2897 226.705 81.8016 227.57 82.0063C228.384 82.2111 229.3 82.1087 230.114 81.8527C231.233 81.4432 232.251 80.7266 232.912 79.7028C233.574 78.7302 233.879 77.4504 233.676 76.273C233.523 75.1981 232.963 74.2254 232.251 73.4576C231.59 72.6897 230.776 72.0755 229.809 71.7683C228.791 71.5636 227.876 71.6659 227.062 72.0243Z" fill="#2F7535"/>
<path d="M96.767 39.621C96.8688 39.1091 96.9705 38.5972 97.0723 38.1365C98.2424 38.1365 99.4126 38.1365 100.583 38.0853C100.684 38.0853 100.837 38.0853 100.888 38.1365C100.99 38.2389 100.99 38.3924 100.99 38.546C100.99 43.9209 100.99 49.2959 100.99 54.6196C99.7178 54.6196 98.3951 54.6196 97.1231 54.6196C97.0214 54.1589 96.8688 53.7494 96.767 53.2887C95.3933 54.2101 93.8671 55.0292 92.239 55.2339C90.7636 55.3875 89.2882 55.0292 88.0163 54.3125C85.4216 52.9304 83.6918 50.1149 83.3865 47.1971C83.183 45.2007 83.6918 43.1531 84.7093 41.4126C85.1672 40.5936 85.7777 39.7234 86.49 39.1091C87.304 38.4436 88.525 38.0853 89.4917 37.8805C90.2039 37.727 90.9162 37.6758 91.6285 37.727C93.5109 37.7781 95.3425 38.4948 96.767 39.621ZM94.1214 51.4971C94.9355 51.0875 95.5969 50.3709 96.1565 49.603C96.767 48.784 97.3267 47.9138 97.4793 46.89C97.6319 45.9685 97.3775 45.0471 97.0214 44.2281C96.5635 43.2555 95.8512 42.3852 94.9863 41.8222C94.1214 41.3103 93.1039 41.0543 92.1373 41.1055C88.9829 41.3614 87.2022 44.6376 87.6093 47.6066C87.711 48.528 88.0671 49.3983 88.6777 50.0637C89.2882 50.7292 90.1531 51.1387 91.018 51.3947C91.832 51.6506 92.6969 51.8554 93.5618 51.6506C93.7144 51.7018 93.9179 51.5994 94.1214 51.4971Z" fill="#F7984E"/>
<path d="M126.58 39.7234C126.682 39.1603 126.733 38.6484 126.835 38.0853C127.954 38.0853 129.073 38.0853 130.193 38.0853C130.193 43.5627 130.193 49.0912 130.193 54.5685C129.073 54.5685 128.005 54.5685 126.886 54.5685C126.733 54.0566 126.631 53.5447 126.479 53.0328C125.309 53.903 123.986 54.6709 122.561 55.0292C120.17 55.5923 117.524 54.7733 115.744 53.084C113.963 51.3947 112.946 48.8864 112.996 46.4293C112.996 44.2793 113.76 42.1805 114.981 40.3889C116.151 38.7508 118.084 37.8294 120.017 37.6758C120.374 37.6758 120.679 37.6246 121.035 37.6758C123.019 37.7782 124.902 38.6484 126.58 39.7234ZM120.017 51.4459C120.679 51.7019 121.442 51.8554 122.154 51.8043C123.731 51.7019 125.258 50.7293 126.072 49.3471C126.886 47.965 127.038 46.2245 126.53 44.6889C125.97 43.102 124.698 41.7198 123.121 41.2591C119.814 40.2353 116.914 43.0508 116.812 46.2757C116.761 47.7091 117.27 49.1936 118.288 50.2174C118.745 50.7805 119.356 51.19 120.017 51.4459Z" fill="#F7984E"/>
<path d="M141.996 32.0449C141.589 29.9461 141.996 27.7961 142.81 25.8509C144.54 21.7045 147.796 18.326 151.205 15.4594C153.189 13.7701 155.326 12.2344 157.361 10.6475C161.329 7.6273 165.247 4.29996 167.74 0C168.91 3.0714 169.622 6.44993 169.062 9.72609C168.503 13.0022 166.468 16.1248 163.415 17.3534C164.941 14.6403 166.468 11.7225 166.061 8.6511C166.01 8.44634 165.959 8.24158 165.755 8.19039C165.654 8.19039 165.501 8.24158 165.399 8.29277C159.854 12.0296 154.308 15.8177 149.424 20.3736C146.015 23.5986 142.861 27.3866 141.996 32.0449Z" fill="#F7984E"/>
<path d="M96.9706 78.0134C96.5636 78.2181 96.1565 78.4741 95.6987 78.5764C95.139 78.6788 94.5285 78.5764 93.918 78.5764C62.9342 78.5764 31.9505 78.5764 1.06847 78.5764C0.814089 78.2181 0.559707 77.911 0.356201 77.655C32.4084 77.655 64.6131 77.655 96.8179 77.655C96.8688 77.7574 96.9197 77.8598 96.9706 78.0134Z" fill="#2F7535"/>
<path d="M191.194 68.3385C191.295 68.2361 191.448 68.1849 191.652 68.0825C192.415 67.8778 193.178 67.8266 193.941 67.9802C194.043 67.9802 194.145 68.0314 194.246 68.1337C194.297 68.1849 194.297 68.2873 194.297 68.3897C194.348 68.9016 194.348 69.4135 194.399 69.9254C194.959 69.7718 195.162 69.0551 195.62 68.5944C196.129 68.0825 196.892 67.9802 197.604 67.9802C198.367 67.9802 199.08 67.9802 199.843 68.0825C199.69 69.4135 199.283 70.6932 198.622 71.8706C198.062 71.4099 197.197 71.5123 196.638 71.973C196.078 72.4337 195.773 73.0992 195.569 73.8158C195.009 75.761 195.264 77.8598 195.315 79.9074C195.366 81.6991 195.315 83.4907 195.213 85.2824C195.213 85.3847 195.213 85.4871 195.111 85.5895C195.06 85.6919 194.908 85.6919 194.806 85.6919C193.483 85.7943 192.11 85.7943 190.787 85.6919C190.787 80.3681 190.736 75.0444 190.736 69.7206C190.838 69.004 190.838 68.5944 191.194 68.3385Z" fill="#2F7535"/>
<path d="M108.977 54.7219C108.418 54.7219 107.909 54.7219 107.4 54.7219C106.841 54.7219 106.23 54.7219 105.569 54.7219C105.569 46.9922 105.569 39.3138 105.569 31.4817C106.586 31.2257 107.705 31.4817 108.926 31.3281C108.977 39.1602 108.977 46.7875 108.977 54.7219Z" fill="#F7984E"/>
<path d="M125.716 109.034C125.207 110.058 124.749 110.929 124.24 111.901C124.902 112.413 125.614 113.027 126.784 114C125.207 114 124.24 114 123.274 114C123.223 113.744 123.172 113.539 123.07 113.078C122.714 113.078 122.256 112.925 121.951 113.078C119.56 114.512 116.354 112.976 114.726 110.877C114.319 110.365 114.167 109.598 114.065 108.881C113.963 107.806 114.014 106.731 114.014 106.117C114.828 103.66 116.558 102.789 118.593 101.868C122.968 101.151 126.377 104.53 125.716 109.034ZM116.202 106.833C116.151 110.007 116.965 110.928 120.475 111.543C120.679 111.338 120.883 111.082 121.086 110.775C120.577 110.161 120.068 109.546 119.305 108.574C120.323 108.523 120.933 108.471 121.29 108.471C121.951 108.932 122.409 109.29 122.867 109.649C123.172 109.29 123.375 109.034 123.681 108.676C123.681 108.113 123.681 107.345 123.681 106.373C122.918 105.605 122.053 104.735 121.34 104.018C118.695 103.608 117.118 104.581 116.202 106.833Z" fill="#2F7535"/>
<path d="M9.31039 114C9.20863 113.693 9.15776 113.437 9.10688 113.13C7.58059 113.334 6.00342 113.488 4.42625 113.693C2.28944 112.823 0.864899 111.492 0 109.29C0.203506 107.755 0.356135 106.27 0.559641 104.837C3.10346 102.175 3.76486 101.868 7.27533 101.868C8.95425 102.789 10.6332 103.455 11.2946 105.451C11.7016 106.629 11.8542 107.704 11.6507 108.779C11.4472 109.802 11.3454 111.031 9.9209 111.85C10.7858 112.515 11.4981 113.13 12.4647 113.949C11.2437 114 10.3788 114 9.31039 114ZM6.76657 103.916C5.85079 103.864 4.68063 103.762 3.76486 104.632C3.15434 105.246 2.54382 105.963 2.18769 106.731C1.67892 107.908 2.5947 110.161 3.76486 110.826C4.47713 111.236 5.3929 111.389 6.20692 111.492C6.51218 111.543 6.86832 111.082 7.32621 110.724C6.76657 110.212 6.2578 109.802 5.79991 109.342C5.64728 109.188 5.69816 108.932 5.59641 108.574C6.20692 108.574 6.76657 108.574 7.47884 108.574C7.52971 108.625 7.73322 108.779 7.88585 108.983C8.08935 109.188 8.34373 109.393 8.8525 109.905C9.10688 109.342 9.25951 108.932 9.41214 108.574C10.0227 106.424 9.00513 104.888 6.76657 103.916Z" fill="#2F7535"/>
<path d="M230.572 109.29C230.572 106.629 230.572 104.325 230.572 101.97C231.539 101.97 232.404 101.561 233.065 102.738C233.065 105.912 233.065 109.393 233.065 113.027C232.607 113.232 232.047 113.488 231.59 113.693C229.198 111.594 228.079 108.779 226.197 106.168C226.197 108.779 226.197 111.031 226.197 113.437C225.484 113.437 224.874 113.437 224.162 113.437C224.162 109.649 224.162 105.912 224.162 102.021C224.721 102.021 225.383 102.021 226.044 102.021C227.469 104.325 228.944 106.629 230.572 109.29Z" fill="#2F7535"/>
<path d="M34.9011 101.97C35.6134 101.97 36.1731 101.97 36.9871 101.97C38.1572 105.759 40.1414 109.342 41.0572 113.488C40.3449 113.488 39.8362 113.488 39.073 113.488C38.8695 112.823 38.5642 112.004 38.259 111.133C36.7836 111.133 35.2064 111.133 33.6292 111.133C33.2222 111.953 32.7643 112.772 32.4082 113.539C31.6959 113.539 31.1363 113.539 30.3223 113.539C31.8994 109.598 33.1713 105.656 34.9011 101.97ZM35.7152 105.451C35.2573 106.68 34.7994 107.704 34.3415 108.881C35.3082 108.881 36.1222 108.881 36.8853 108.881C37.1397 107.499 36.6818 106.424 35.7152 105.451Z" fill="#2F7535"/>
<path d="M95.4952 113.027C94.9355 113.283 94.325 113.488 93.6636 113.744C93.1548 112.771 92.697 111.952 92.1882 111.031C90.7128 111.031 89.1356 111.031 87.6093 111.031C87.304 111.901 87.0497 112.72 86.7953 113.437C86.1339 113.437 85.5742 113.437 84.9129 113.437C84.9129 112.874 84.7602 112.26 84.9637 111.901C86.6427 108.727 87.3549 105.144 89.0338 101.919C89.6444 101.919 90.204 101.919 90.9672 101.919C92.7987 105.349 93.5619 109.342 95.4952 113.027ZM90.1531 105.502C89.0847 106.475 88.6777 107.601 89.0338 109.086C89.8987 109.035 90.6619 108.932 91.5268 108.881C91.018 107.601 90.611 106.577 90.1531 105.502Z" fill="#2F7535"/>
<path d="M198.215 101.97C199.13 101.97 199.69 101.97 200.351 101.97C201.929 105.707 203.353 109.495 204.625 113.488C203.709 113.488 203.15 113.488 202.488 113.488C202.234 112.72 201.98 111.952 201.674 111.082C200.148 111.082 198.571 111.082 197.095 111.082C196.688 111.901 196.281 112.669 195.925 113.283C194.959 113.847 194.348 113.488 193.941 112.976C195.366 109.291 196.79 105.656 198.215 101.97ZM200.25 108.932C200.555 107.601 200.199 106.475 199.08 105.503C198.622 106.68 198.164 107.755 197.706 108.932C198.622 108.932 199.385 108.932 200.25 108.932Z" fill="#2F7535"/>
<path d="M62.4763 110.929C63.7991 110.929 64.8675 110.929 66.1394 110.929C66.1903 111.799 66.2412 112.618 66.2412 113.488C64.0535 113.488 61.9676 113.488 59.729 113.488C59.729 113.181 59.5255 112.72 59.6781 112.413C60.7974 109.854 61.9676 107.294 63.2395 104.53C62.2219 104.479 61.3062 104.427 60.0851 104.376C59.8816 103.711 59.729 102.943 59.4746 102.021C61.8149 102.021 63.9517 102.021 66.1903 102.021C66.4956 103.813 64.9184 104.991 64.6131 106.629C64.3587 108.062 63.2903 109.393 62.4763 110.929Z" fill="#2F7535"/>
<path d="M148.814 113.539C148.305 113.539 147.44 113.539 146.626 113.539C146.015 112.669 144.693 112.464 144.54 111.594C145.1 111.031 145.558 110.57 146.117 110.007C146.575 110.468 147.135 111.031 147.796 111.696C148.305 111.236 148.814 110.826 149.17 110.519C147.644 108.983 146.168 107.499 144.845 106.168C144.845 105.042 144.845 104.376 144.845 103.66C145.405 103.148 146.015 102.533 146.677 101.919C147.389 101.919 148.254 101.919 148.661 101.919C149.475 102.738 150.136 103.404 150.9 104.172C150.543 104.427 150.086 104.786 149.526 105.195C148.915 104.632 148.407 104.223 147.694 103.608C147.338 104.018 147.084 104.427 146.728 104.837C148.356 106.373 149.933 107.806 151.357 109.137C151.612 111.185 151.205 112.823 148.814 113.539Z" fill="#2F7535"/>
<path d="M175.676 101.919C175.676 102.84 175.676 103.506 175.676 104.325C175.066 104.376 174.455 104.479 173.743 104.53C173.743 107.448 173.743 110.365 173.743 113.488C173.082 113.539 172.42 113.59 171.708 113.59C171.708 110.57 171.708 107.652 171.708 104.581C171.047 104.53 170.385 104.427 169.673 104.376C169.673 103.66 169.673 102.943 169.673 101.97C171.606 101.868 173.641 101.919 175.676 101.919Z" fill="#2F7535"/>
<path d="M56.0149 48.1186C53.3694 48.1186 50.7747 48.1186 48.0273 48.1186C48.2817 46.9412 47.5186 45.6615 48.7905 44.6377C51.1817 44.6377 53.5729 44.6377 56.0658 44.6377C56.0149 45.7127 56.0149 46.7877 56.0149 48.1186Z" fill="#F7984E"/>
<path d="M237.593 44.484C222.839 44.484 208.136 44.484 193.381 44.484C193.381 44.3304 193.381 44.2792 193.432 44.228C193.483 44.1768 193.534 44.0745 193.636 44.0745C208.288 44.0745 222.991 44.0745 237.644 44.0745C237.593 44.228 237.593 44.3816 237.593 44.484Z" fill="#F7984E"/>
<path d="M7.98755 46.0198H14.9576L11.3963 36.6008L7.98755 46.0198Z" fill="white"/>
</svg>
